<svg xmlns="http://www.w3.org/2000/svg" xmlns:xlink="http://www.w3.org/1999/xlink" width="500" zoomAndPan="magnify" viewBox="0 0 375 374.999991" height="500" preserveAspectRatio="xMidYMid meet" version="1.0"><defs><g/></defs><g fill="#f4f4f4" fill-opacity="1"><g transform="translate(61.335656, 262.500478)"><g><path d="M 20.78125 -13.890625 C 10.28125 -25.335938 5.03125 -39.375 5.03125 -56 C 5.03125 -72.625 10.28125 -86.691406 20.78125 -98.203125 C 31.28125 -109.722656 44.625 -115.484375 60.8125 -115.484375 C 75.6875 -115.484375 87.9375 -110.820312 97.5625 -101.5 L 97.5625 -112.203125 L 136.265625 -112.203125 L 136.265625 0 L 98 0 L 98 -12.6875 L 97.5625 -12.6875 C 87.9375 -2.039062 75.6875 3.28125 60.8125 3.28125 C 44.625 3.28125 31.28125 -2.441406 20.78125 -13.890625 Z M 53.703125 -75.03125 C 48.671875 -70.070312 46.15625 -63.726562 46.15625 -56 C 46.15625 -48.269531 48.5625 -41.960938 53.375 -37.078125 C 58.1875 -32.191406 64.53125 -29.75 72.40625 -29.75 C 79.988281 -29.75 86.222656 -32.226562 91.109375 -37.1875 C 95.992188 -42.144531 98.4375 -48.414062 98.4375 -56 C 98.4375 -63.726562 95.921875 -70.070312 90.890625 -75.03125 C 85.859375 -79.988281 79.695312 -82.46875 72.40625 -82.46875 C 64.96875 -82.46875 58.734375 -79.988281 53.703125 -75.03125 Z M 53.703125 -75.03125 "/></g></g></g><g fill="#f4f4f4" fill-opacity="1"><g transform="translate(199.792998, 262.500478)"><g><path d="M 13.125 0 L 13.125 -188.109375 L 51.84375 -188.109375 L 51.84375 0 Z M 13.125 0 "/></g></g></g><g fill="#ff914d" fill-opacity="1"><g transform="translate(253.81222, 262.500478)"><g><path d="M 38.0625 -46.8125 C 45.0625 -46.8125 51.003906 -44.367188 55.890625 -39.484375 C 60.773438 -34.597656 63.21875 -28.65625 63.21875 -21.65625 C 63.21875 -14.800781 60.773438 -8.929688 55.890625 -4.046875 C 51.003906 0.835938 45.0625 3.28125 38.0625 3.28125 C 31.207031 3.28125 25.335938 0.835938 20.453125 -4.046875 C 15.566406 -8.929688 13.125 -14.800781 13.125 -21.65625 C 13.125 -28.65625 15.566406 -34.597656 20.453125 -39.484375 C 25.335938 -44.367188 31.207031 -46.8125 38.0625 -46.8125 Z M 38.0625 -46.8125 "/></g></g></g></svg>